<?xml version="1.0" standalone="no"?>
<!DOCTYPE svg PUBLIC "-//W3C//DTD SVG 20010904//EN"
 "http://www.w3.org/TR/2001/REC-SVG-20010904/DTD/svg10.dtd">
<svg version="1.0" xmlns="http://www.w3.org/2000/svg"
 width="260.000000pt" height="260.000000pt" viewBox="0 0 260.000000 260.000000"
 preserveAspectRatio="xMidYMid meet">
<metadata>
Created by potrace 1.11, written by Peter Selinger 2001-2013
</metadata>
<g transform="translate(0.000000,260.000000) scale(0.100000,-0.100000)"
fill="#000000" stroke="none">
<path d="M0 1305 l0 -1295 1300 0 1300 0 0 1295 0 1295 -1300 0 -1300 0 0
-1295z m1130 520 c0 -140 4 -255 8 -255 5 0 19 12 33 26 57 61 162 89 275 73
156 -22 266 -134 311 -316 22 -92 22 -304 0 -396 -45 -182 -152 -291 -309
-317 -114 -18 -219 13 -288 84 -30 32 -35 34 -42 19 -3 -10 -7 -35 -7 -55 l-1
-38 -120 0 -120 0 0 715 0 715 130 0 130 0 0 -255z"/>
<path d="M1225 1446 c-17 -7 -45 -30 -63 -50 l-32 -37 0 -204 0 -204 31 -36
c18 -20 41 -41 53 -47 60 -32 162 -27 216 12 54 38 73 100 78 246 6 187 -24
276 -109 319 -35 18 -133 19 -174 1z"/>
</g>
</svg>
